rat_kapali_dongu_referansli_zemin_x10_YAVAS4x
version=1
nRows=62
nColumns=15
inDegrees=yes
endheader
time	sacrum_pitch	sacrum_roll	sacrum_yaw	sacrum_x	sacrum_y	sacrum_z	sacroiliac_flx	hip_flx	hip_add	hip_int	knee_flx	ankle_flx	ankle_add	ankle_int
0.000000	22.370217	0.000000	0.000000	0.000000	0.672500	0.000000	3.700000	64.746804	-10.000000	0.000000	-107.691465	6.602731	-5.000000	0.000000
0.000800	22.370217	0.000000	0.000000	0.000000	0.672500	0.000000	3.700000	64.733387	-10.000000	0.000000	-107.699042	6.598413	-5.000000	0.000000
0.001600	22.370217	0.000000	0.000000	0.000000	0.672500	0.000000	3.700000	64.720455	-10.000000	0.000000	-107.708895	6.600259	-5.000000	0.000000
0.002400	22.370217	0.000000	0.000000	0.000000	0.672500	0.000000	3.700000	64.708373	-10.000000	0.000000	-107.721634	6.606483	-5.000000	0.000000
0.003200	22.370217	0.000000	0.000000	0.000000	0.672500	0.000000	3.700000	64.697528	-10.000000	0.000000	-107.737704	6.613210	-5.000000	0.000000
0.004000	22.370217	0.000000	0.000000	0.000000	0.672500	0.000000	3.700000	64.688251	-10.000000	0.000000	-107.757546	6.618080	-5.000000	0.000000
0.004800	22.370217	0.000000	0.000000	0.000000	0.672500	0.000000	3.700000	64.680806	-10.000000	0.000000	-107.781624	6.621175	-5.000000	0.000000
0.005600	22.370217	0.000000	0.000000	0.000000	0.672500	0.000000	3.700000	64.675401	-10.000000	0.000000	-107.810393	6.624069	-5.000000	0.000000
0.006400	22.370217	0.000000	0.000000	0.000000	0.672500	0.000000	3.700000	64.672218	-10.000000	0.000000	-107.844237	6.628491	-5.000000	0.000000
0.007200	22.370217	0.000000	0.000000	0.000000	0.672500	0.000000	3.700000	64.671415	-10.000000	0.000000	-107.883434	6.635716	-5.000000	0.000000
0.008000	22.370217	0.000000	0.000000	0.000000	0.672500	0.000000	3.700000	64.672995	-10.000000	0.000000	-107.927554	6.643390	-5.000000	0.000000
0.008800	22.370217	0.000000	0.000000	0.000000	0.672500	0.000000	3.700000	64.676757	-10.000000	0.000000	-107.975667	6.648612	-5.000000	0.000000
0.009600	22.370217	0.000000	0.000000	0.000000	0.672500	0.000000	3.700000	64.682398	-10.000000	0.000000	-108.026826	6.650552	-5.000000	0.000000
0.010400	22.370217	0.000000	0.000000	0.000000	0.672500	0.000000	3.700000	64.689552	-10.000000	0.000000	-108.080086	6.649651	-5.000000	0.000000
0.011200	22.370217	0.000000	0.000000	0.000000	0.672500	0.000000	3.700000	64.697829	-10.000000	0.000000	-108.134554	6.647404	-5.000000	0.000000
0.012000	22.370217	0.000000	0.000000	0.000000	0.672500	0.000000	3.700000	64.706840	-10.000000	0.000000	-108.189343	6.645072	-5.000000	0.000000
0.012800	22.370217	0.000000	0.000000	0.000000	0.672500	0.000000	3.700000	64.716215	-10.000000	0.000000	-108.243559	6.643073	-5.000000	0.000000
0.013600	22.370217	0.000000	0.000000	0.000000	0.672500	0.000000	3.700000	64.725608	-10.000000	0.000000	-108.296349	6.641504	-5.000000	0.000000
0.014400	22.370217	0.000000	0.000000	0.000000	0.672500	0.000000	3.700000	64.734692	-10.000000	0.000000	-108.346932	6.640425	-5.000000	0.000000
0.015200	22.370217	0.000000	0.000000	0.000000	0.672500	0.000000	3.700000	64.743165	-10.000000	0.000000	-108.394607	6.639783	-5.000000	0.000000
0.016000	22.370217	0.000000	0.000000	0.000000	0.672500	0.000000	3.700000	64.750744	-10.000000	0.000000	-108.438763	6.639437	-5.000000	0.000000
0.016800	22.370217	0.000000	0.000000	0.000000	0.672500	0.000000	3.700000	64.757178	-10.000000	0.000000	-108.478907	6.639217	-5.000000	0.000000
0.017600	22.370217	0.000000	0.000000	0.000000	0.672500	0.000000	3.700000	64.762255	-10.000000	0.000000	-108.514685	6.639131	-5.000000	0.000000
0.018400	22.370217	0.000000	0.000000	0.000000	0.672500	0.000000	3.700000	64.765813	-10.000000	0.000000	-108.545909	6.639335	-5.000000	0.000000
0.019200	22.370217	0.000000	0.000000	0.000000	0.672500	0.000000	3.700000	64.767755	-10.000000	0.000000	-108.572519	6.639406	-5.000000	0.000000
0.020000	22.370217	0.000000	0.000000	0.000000	0.672500	0.000000	3.700000	64.768039	-10.000000	0.000000	-108.594653	6.639324	-5.000000	0.000000
0.020800	22.370217	0.000000	0.000000	0.000000	0.672500	0.000000	3.700000	64.766681	-10.000000	0.000000	-108.612647	6.639502	-5.000000	0.000000
0.021600	22.370217	0.000000	0.000000	0.000000	0.672500	0.000000	3.700000	64.763751	-10.000000	0.000000	-108.626943	6.639732	-5.000000	0.000000
0.022400	22.370217	0.000000	0.000000	0.000000	0.672500	0.000000	3.700000	64.759344	-10.000000	0.000000	-108.638101	6.640012	-5.000000	0.000000
0.023200	22.370217	0.000000	0.000000	0.000000	0.672500	0.000000	3.700000	64.753596	-10.000000	0.000000	-108.646879	6.640939	-5.000000	0.000000
0.024000	22.370217	0.000000	0.000000	0.000000	0.672500	0.000000	3.700000	64.746683	-10.000000	0.000000	-108.654090	6.642620	-5.000000	0.000000
0.024800	22.370217	0.000000	0.000000	0.000000	0.672500	0.000000	3.700000	64.738793	-10.000000	0.000000	-108.660556	6.645272	-5.000000	0.000000
0.025600	22.370217	0.000000	0.000000	0.000000	0.672500	0.000000	3.700000	64.730105	-10.000000	0.000000	-108.666999	6.648800	-5.000000	0.000000
0.026400	22.370217	0.000000	0.000000	0.000000	0.672500	0.000000	3.700000	64.720770	-10.000000	0.000000	-108.674013	6.653072	-5.000000	0.000000
0.027200	22.370217	0.000000	0.000000	0.000000	0.672500	0.000000	3.700000	64.710914	-10.000000	0.000000	-108.682062	6.658043	-5.000000	0.000000
0.028000	22.370217	0.000000	0.000000	0.000000	0.672500	0.000000	3.700000	64.700635	-10.000000	0.000000	-108.691507	6.663776	-5.000000	0.000000
0.028800	22.370217	0.000000	0.000000	0.000000	0.672500	0.000000	3.700000	64.690010	-10.000000	0.000000	-108.702612	6.670369	-5.000000	0.000000
0.029600	22.370217	0.000000	0.000000	0.000000	0.672500	0.000000	3.700000	64.679101	-10.000000	0.000000	-108.715566	6.677913	-5.000000	0.000000
0.030400	22.370217	0.000000	0.000000	0.000000	0.672500	0.000000	3.700000	64.667949	-10.000000	0.000000	-108.730447	6.686339	-5.000000	0.000000
0.031200	22.370217	0.000000	0.000000	0.000000	0.672500	0.000000	3.700000	64.656562	-10.000000	0.000000	-108.747216	6.695514	-5.000000	0.000000
0.032000	22.370217	0.000000	0.000000	0.000000	0.672500	0.000000	3.700000	64.644933	-10.000000	0.000000	-108.765763	6.705278	-5.000000	0.000000
0.032800	22.370217	0.000000	0.000000	0.000000	0.672500	0.000000	3.700000	64.633032	-10.000000	0.000000	-108.785908	6.715480	-5.000000	0.000000
0.033600	22.370217	0.000000	0.000000	0.000000	0.672500	0.000000	3.700000	64.620827	-10.000000	0.000000	-108.807478	6.726083	-5.000000	0.000000
0.034400	22.370217	0.000000	0.000000	0.000000	0.672500	0.000000	3.700000	64.608289	-10.000000	0.000000	-108.830307	6.737052	-5.000000	0.000000
0.035200	22.370217	0.000000	0.000000	0.000000	0.672500	0.000000	3.700000	64.595389	-10.000000	0.000000	-108.854237	6.748354	-5.000000	0.000000
0.036000	22.370217	0.000000	0.000000	0.000000	0.672500	0.000000	3.700000	64.582103	-10.000000	0.000000	-108.879121	6.759968	-5.000000	0.000000
0.036800	22.370217	0.000000	0.000000	0.000000	0.672500	0.000000	3.700000	64.568406	-10.000000	0.000000	-108.904820	6.771875	-5.000000	0.000000
0.037600	22.370217	0.000000	0.000000	0.000000	0.672500	0.000000	3.700000	64.554280	-10.000000	0.000000	-108.931213	6.784100	-5.000000	0.000000
0.038400	22.370217	0.000000	0.000000	0.000000	0.672500	0.000000	3.700000	64.539727	-10.000000	0.000000	-108.958270	6.796861	-5.000000	0.000000
0.039200	22.370217	0.000000	0.000000	0.000000	0.672500	0.000000	3.700000	64.524768	-10.000000	0.000000	-108.986001	6.810272	-5.000000	0.000000
0.040000	22.370217	0.000000	0.000000	0.000000	0.672500	0.000000	3.700000	64.509459	-10.000000	0.000000	-109.014534	6.824672	-5.000000	0.000000
0.040800	22.370217	0.000000	0.000000	0.000000	0.672500	0.000000	3.700000	64.493867	-10.000000	0.000000	-109.043996	6.840092	-5.000000	0.000000
0.041600	22.370217	0.000000	0.000000	0.000000	0.672500	0.000000	3.700000	64.478053	-10.000000	0.000000	-109.074488	6.856526	-5.000000	0.000000
0.042400	22.370217	0.000000	0.000000	0.000000	0.672500	0.000000	3.700000	64.462075	-10.000000	0.000000	-109.106086	6.873956	-5.000000	0.000000
0.043200	22.370217	0.000000	0.000000	0.000000	0.672500	0.000000	3.700000	64.445983	-10.000000	0.000000	-109.138849	6.892366	-5.000000	0.000000
0.044000	22.370217	0.000000	0.000000	0.000000	0.672500	0.000000	3.700000	64.429825	-10.000000	0.000000	-109.172817	6.911732	-5.000000	0.000000
0.044800	22.370217	0.000000	0.000000	0.000000	0.672500	0.000000	3.700000	64.413643	-10.000000	0.000000	-109.208015	6.932026	-5.000000	0.000000
0.045600	22.370217	0.000000	0.000000	0.000000	0.672500	0.000000	3.700000	64.397465	-10.000000	0.000000	-109.244402	6.953023	-5.000000	0.000000
0.046400	22.370217	0.000000	0.000000	0.000000	0.672500	0.000000	3.700000	64.381290	-10.000000	0.000000	-109.281864	6.974514	-5.000000	0.000000
0.047200	22.370217	0.000000	0.000000	0.000000	0.672500	0.000000	3.700000	64.365071	-10.000000	0.000000	-109.320127	6.995851	-5.000000	0.000000
0.048000	22.370217	0.000000	0.000000	0.000000	0.672500	0.000000	3.700000	64.348703	-10.000000	0.000000	-109.358795	7.016630	-5.000000	0.000000
0.048800	22.370217	0.000000	0.000000	0.000000	0.672500	0.000000	3.700000	64.332084	-10.000000	0.000000	-109.397537	7.036813	-5.000000	0.000000
